<svg width="94" height="95" viewBox="0 0 94 95" fill="none" xmlns="http://www.w3.org/2000/svg">
<path d="M8.9375 69.75C4.5625 69.75 0.8125 66.125 0.9375 61.625C0.8125 57.25 4.5625 53.625 8.9375 53.625C13.3125 53.625 16.9375 57.25 16.9375 61.625C16.9375 66.125 13.3125 69.75 8.9375 69.75ZM8.9375 19.5C4.5625 19.5 0.8125 15.875 0.9375 11.375C0.8125 7 4.5625 3.375 8.9375 3.375C13.3125 3.375 16.9375 7 16.9375 11.375C16.9375 15.875 13.3125 19.5 8.9375 19.5ZM33.8125 94.5V1.125H44.1875V11.875H45.4375C47.6875 8.25 51.9375 0.25 65.0625 0.25C82.0625 0.25 93.9375 13.75 93.9375 35.25C93.9375 56.75 82.0625 70.375 65.1875 70.375C52.1875 70.375 47.6875 62.375 45.4375 58.625H44.5625V94.5H33.8125ZM44.3125 35C44.3125 50.25 51.1875 60.75 63.6875 60.75C76.5625 60.75 83.1875 49.5 83.1875 35C83.1875 20.875 76.6875 9.875 63.6875 9.875C50.9375 9.875 44.3125 20 44.3125 35Z" fill="black"/>
</svg>
